<svg xmlns="http://www.w3.org/2000/svg" viewBox="0 0 13.58 13.64"><title>加粗</title><g id="图层_2" data-name="图层 2"><g id="图层_1-2" data-name="图层 1"><path d="M11.76,6.25a3.24,3.24,0,0,1,1.83,3.07A3.68,3.68,0,0,1,12,12.53a8.16,8.16,0,0,1-4.68,1.11H0V0H7.48a6.76,6.76,0,0,1,4,1,3.21,3.21,0,0,1,1.39,2.76,3.54,3.54,0,0,1-.26,1.52A2.78,2.78,0,0,1,11.76,6.25ZM4.13,5.15H6.7a3.2,3.2,0,0,0,1.57-.28,1,1,0,0,0,.48-1q0-.95-2-1H4.13Zm0,5.51H7.39A3,3,0,0,0,9,10.34a1.13,1.13,0,0,0,.51-1,1,1,0,0,0-.53-1A4.52,4.52,0,0,0,7.05,8H4.13Z"/></g></g></svg>