<svg xmlns="http://www.w3.org/2000/svg" viewBox="0 0 18.46 13.9"><title>列表</title><g id="图层_2" data-name="图层 2"><g id="图层_1-2" data-name="图层 1"><path d="M4.8,1.62H17.66a.73.73,0,0,0,.8-.62.73.73,0,0,0-.8-.62H4.8A.73.73,0,0,0,4,1,.73.73,0,0,0,4.8,1.62Z"/><path d="M17.66,6.33H4.8A.73.73,0,0,0,4,7a.73.73,0,0,0,.8.62H17.66a.73.73,0,0,0,.8-.62A.73.73,0,0,0,17.66,6.33Z"/><path d="M17.66,12.28H4.8a.73.73,0,0,0-.8.62.73.73,0,0,0,.8.62H17.66a.73.73,0,0,0,.8-.62A.73.73,0,0,0,17.66,12.28Z"/><circle cx="1" cy="1" r="1"/><circle cx="1" cy="6.95" r="1" transform="translate(-0.34 0.06) rotate(-2.84)"/><circle cx="1" cy="12.9" r="1" transform="translate(-0.64 0.07) rotate(-2.84)"/></g></g></svg>