<svg xmlns="http://www.w3.org/2000/svg" viewBox="0 0 14.46 14"><title>左对齐</title><g id="图层_2" data-name="图层 2"><g id="图层_1-2" data-name="图层 1"><path d="M.8,1.24H13.66a.73.73,0,0,0,.8-.62.73.73,0,0,0-.8-.62H.8A.73.73,0,0,0,0,.62.73.73,0,0,0,.8,1.24Z"/><path d="M.8,5.49H7.23A.73.73,0,0,0,8,4.87a.73.73,0,0,0-.8-.62H.8a.73.73,0,0,0-.8.62A.73.73,0,0,0,.8,5.49Z"/><path d="M7.23,12.76H.8a.73.73,0,0,0-.8.62A.73.73,0,0,0,.8,14H7.23a.73.73,0,0,0,.8-.62A.73.73,0,0,0,7.23,12.76Z"/><path d="M13.66,8.51H.8a.73.73,0,0,0-.8.62.73.73,0,0,0,.8.62H13.66a.73.73,0,0,0,.8-.62A.73.73,0,0,0,13.66,8.51Z"/></g></g></svg>