<svg xmlns="http://www.w3.org/2000/svg" viewBox="0 0 14.46 14"><title>右对齐</title><g id="图层_2" data-name="图层 2"><g id="图层_1-2" data-name="图层 1"><path d="M.8,1.24H13.66a.73.73,0,0,0,.8-.62.73.73,0,0,0-.8-.62H.8A.73.73,0,0,0,0,.62.73.73,0,0,0,.8,1.24Z"/><path d="M13.66,4.25H7.23a.73.73,0,0,0-.8.62.73.73,0,0,0,.8.62h6.43a.73.73,0,0,0,.8-.62A.73.73,0,0,0,13.66,4.25Z"/><path d="M13.66,12.76H7.23a.73.73,0,0,0-.8.62.73.73,0,0,0,.8.62h6.43a.73.73,0,0,0,.8-.62A.73.73,0,0,0,13.66,12.76Z"/><path d="M13.66,8.51H.8a.73.73,0,0,0-.8.62.73.73,0,0,0,.8.62H13.66a.73.73,0,0,0,.8-.62A.73.73,0,0,0,13.66,8.51Z"/></g></g></svg>