<?xml version="1.0" standalone="no"?><!DOCTYPE svg PUBLIC "-//W3C//DTD SVG 1.1//EN" "http://www.w3.org/Graphics/SVG/1.1/DTD/svg11.dtd"><svg class="icon" width="32px" height="32.00px" viewBox="0 0 1024 1024" version="1.1" xmlns="http://www.w3.org/2000/svg"><path d="M942.98902663 847.39083505l-359.91228951-347.81439814 309.14434949-345.65406064c23.7637169-24.62785137 67.29452491-50.33587235 43.20675792-74.09958838a62.43376464 62.43376464 0 0 0-88.03376807 1.51223642L510.38136758 429.25743916 167.42772967 97.86160919a62.21773125 62.21773125 0 0 0-86.41351581 89.54600447L436.8218627 504.86926483 97.43278204 856.57227121a62.21773125 62.21773125 0 1 0 89.54600536 86.41351493l328.37135713-367.25743915L870.40167473 892.64991375c24.62785137 23.7637169 50.33587235 67.29452491 74.09958922 43.20675704a62.43376464 62.43376464 0 0 0-1.51223728-88.4658357z" fill="#515151" /></svg>