<svg xmlns="http://www.w3.org/2000/svg" viewBox="0 0 23 21.27"><defs><style>.cls-1{stroke:#000;stroke-miterlimit:10;}</style></defs><title>删除</title><g id="图层_2" data-name="图层 2"><g id="图层_1-2" data-name="图层 1"><path class="cls-1" d="M18.71,8a.53.53,0,0,0-.5.55V18.1A1.44,1.44,0,0,1,17,19.68H6a1.44,1.44,0,0,1-1.2-1.58V8.54A.53.53,0,0,0,4.31,8a.53.53,0,0,0-.5.55V18.1A2.48,2.48,0,0,0,6,20.77H17a2.48,2.48,0,0,0,2.2-2.67V8.54A.53.53,0,0,0,18.71,8Z"/><path class="cls-1" d="M22,5H16.5V2.45c0-1.11-.57-2-1.32-2H7.82c-.75,0-1.32.84-1.32,2V5H1A.5.5,0,0,0,1,6H22a.5.5,0,0,0,0-1ZM15.51,5h-8V2.45a1.17,1.17,0,0,1,.32-1h7.36c.09,0,.33.36.33,1Z"/><path class="cls-1" d="M9.5,16.22V10.55c0-.39-.22-.71-.5-.71s-.5.32-.5.71v5.66c0,.39.22.71.5.71S9.5,16.61,9.5,16.22Z"/><path class="cls-1" d="M14.5,16.22V10.55c0-.39-.22-.71-.5-.71s-.5.32-.5.71v5.66c0,.39.22.71.5.71S14.5,16.61,14.5,16.22Z"/></g></g></svg>