<?xml version="1.0" standalone="no"?><!DOCTYPE svg PUBLIC "-//W3C//DTD SVG 1.1//EN" "http://www.w3.org/Graphics/SVG/1.1/DTD/svg11.dtd"><svg class="icon" width="16px" height="16.00px" viewBox="0 0 1024 1024" version="1.1" xmlns="http://www.w3.org/2000/svg"><path d="M605.693 867.837h-63.715v-304.621h63.715v304.621M881.428 719.652c-16.991 25.486-43.449 38.108-79.493 38.108h-73.060v110.077h-63.715v-304.621h139.325c29.491 0 52.671 8.738 69.42 26.093 16.869 17.355 25.244 41.142 25.244 71.483 0.122 21.36-5.825 41.021-17.718 58.861M186.383 867.837v-648.685c0-2.67-2.185-4.854-4.854-4.854h-49.637c-2.67 0-4.854-2.185-4.854-4.854v-49.759c0-2.67 2.185-4.854 4.854-4.854h227.92c2.67 0 4.854 2.185 4.854 4.854v292.242l297.703-295.641c0.85-0.85 2.185-1.456 3.398-1.456h221.972c4.369 0 6.432 5.219 3.398 8.253l-704.754 704.754M822.446 625.596c-8.738-6.432-23.059-9.709-42.962-9.709h-50.608v89.202h59.104c20.389 0 34.224-6.19 41.628-18.569 4.005-6.796 5.947-16.384 5.947-28.763 0-14.928-4.369-25.607-13.107-32.161M822.446 625.596z" fill="#fe6103" /></svg>