<svg xmlns="http://www.w3.org/2000/svg" viewBox="0 0 35.4 16"><defs><style>.cls-1{fill:#fe6103;}.cls-2{fill:#fff;}</style></defs><title>vip</title><g id="图层_2" data-name="图层 2"><g id="图层_1-2" data-name="图层 1"><path class="cls-1" d="M27.6,0H7.8A7.81,7.81,0,0,0,0,7.8V16H27.6a7.81,7.81,0,0,0,7.8-7.8V7.9A7.83,7.83,0,0,0,27.6,0ZM12.1,12H10.3L7.1,4.1H9.4l1.9,4.6,1.9-4.6h2.3Zm7.6,0H17.6V4.1h2.1Zm7.9-3.6a2.49,2.49,0,0,1-1.9.7H24v2.8H22V4h3.6a2.35,2.35,0,0,1,1.9.7,2.27,2.27,0,0,1,.7,1.8A2,2,0,0,1,27.6,8.4Z"/><path class="cls-1" d="M25.5,5.9H24V7.3h1.4a1.45,1.45,0,0,0,.7-.2.76.76,0,0,0,.2-.5.59.59,0,0,0-.2-.5A.85.85,0,0,0,25.5,5.9Z"/><polygon class="cls-2" points="11.2 8.7 9.4 4.1 7.1 4.1 10.3 12 12.1 12 15.4 4.1 13.1 4.1 11.2 8.7"/><rect class="cls-2" x="17.6" y="4.1" width="2.1" height="7.9"/><path class="cls-2" d="M25.7,4.1H22.1V12h2V9.2h1.6a2.35,2.35,0,0,0,1.9-.7,2.49,2.49,0,0,0,.7-1.9,2.14,2.14,0,0,0-.7-1.8A2.35,2.35,0,0,0,25.7,4.1Zm.4,3a1.17,1.17,0,0,1-.7.2H24V5.9h1.4a1.45,1.45,0,0,1,.7.2.76.76,0,0,1,.2.5C26.3,6.8,26.3,7,26.1,7.1Z"/></g></g></svg>